#!OML:ASF G:\JayActor3\Patient Classification 1\Patient 1\Session 5\male.ASF
:FULLY-SPECIFIED
:DEGREES
554
root 8.68451 17.4536 -5.00462 -46.5819 81.3703 -63.4154
lowerback 19.7547 -1.43356 4.85211
upperback 6.42384 -0.564087 0.113713
thorax -4.14811 -0.105545 -2.51917
lowerneck 4.92018 1.13172 2.52752
upperneck -17.8618 2.44896 1.66062
head -6.21849 1.04148 -0.0759082
rclavicle 1.78906e-014 4.29375e-014
rhumerus -29.347 -1.13144 -89.9322
rradius 29.3365
rwrist 2.12885
rhand -22.1669 -8.72699
rfingers 7.12502
rthumb 4.2476 -38.6644
lclavicle 1.78906e-014 4.29375e-014
lhumerus -31.9988 6.30445 82.8692
lradius 28.8059
lwrist 22.5235
lhand -20.1109 11.6084
lfingers 7.12502
lthumb 6.23279 41.4967
rfemur -14.7994 8.85413 28.4546
rtibia 38.8916
rfoot 0.866365 -6.4078
rtoes -3.31101
lfemur -41.2895 16.1581 -22.984
ltibia 22.13
lfoot 18.1825 -6.98412
ltoes -1.75872
555
root 8.54466 17.4455 -4.9929 -46.2784 81.0787 -62.9525
lowerback 19.7483 -1.37195 4.97363
upperback 6.43659 -0.45924 0.154167
thorax -4.12283 -0.0531806 -2.56904
lowerneck 4.9689 1.13232 2.52934
upperneck -17.8776 2.45499 1.67855
head -6.23227 1.04205 -0.0714428
rclavicle 7.15625e-015 -9.54166e-015
rhumerus -29.3493 -1.06217 -90.0247
rradius 29.3649
rwrist 2.13586
rhand -22.1494 -8.7489
rfingers 7.12502
rthumb 4.26448 -38.686
lclavicle 7.15625e-015 -9.54166e-015
lhumerus -32.0748 6.30939 82.9347
lradius 28.8961
lwrist 22.6441
lhand -20.0947 11.6428
lfingers 7.12502
lthumb 6.24838 41.5307
rfemur -14.5825 8.6793 28.8891
rtibia 38.3316
rfoot 0.0543271 -6.23133
rtoes -4.90532
lfemur -41.4293 15.9372 -22.562
ltibia 21.8364
lfoot 18.6881 -6.34397
ltoes -1.36918
556
root 8.39986 17.4292 -4.98118 -45.9231 80.7792 -62.4384
lowerback 19.7631 -1.30692 5.09439
upperback 6.45431 -0.348389 0.194554
thorax -4.10235 0.00239456 -2.61985
lowerneck 5.02758 1.13025 2.53534
upperneck -17.9204 2.45833 1.68862
head -6.25618 1.04141 -0.0702412
rclavicle 8.74653e-015 -1.90833e-014
rhumerus -29.3331 -1.00553 -90.113
rradius 29.393
rwrist 2.13503
rhand -22.1314 -8.79857
rfingers 7.12502
rthumb 4.28188 -38.7353
lclavicle 8.74653e-015 -1.90833e-014
lhumerus -32.1397 6.31422 83.0082
lradius 28.983
lwrist 22.7622
lhand -20.105 11.6679
lfingers 7.12502
lthumb 6.23846 41.556
rfemur -14.4894 8.35714 29.3325
rtibia 37.9971
rfoot -0.801541 -6.11858
rtoes -6.34545
lfemur -41.5831 15.706 -22.1189
ltibia 21.4917
lfoot 19.324 -5.63333
ltoes -1.06096
557
root 8.25114 17.415 -4.96975 -45.445 80.4795 -61.8009
lowerback 19.8016 -1.23722 5.1992
upperback 6.4797 -0.232804 0.229595
thorax -4.08523 0.0606631 -2.66839
lowerneck 5.10124 1.12922 2.5382
upperneck -17.9968 2.4653 1.69886
head -6.29344 1.04242 -0.069072
rclavicle 7.15625e-015 -2.22639e-014
rhumerus -29.2936 -0.959515 -90.1991
rradius 29.4169
rwrist 2.12121
rhand -22.1232 -8.86776
rfingers 7.12502
rthumb 4.28983 -38.8043
lclavicle 7.15625e-015 -2.22639e-014
lhumerus -32.1895 6.32392 83.0877
lradius 29.0634
lwrist 22.8721
lhand -20.1511 11.6975
lfingers 7.12502
lthumb 6.19398 41.5869
rfemur -14.4935 7.95738 29.7525
rtibia 37.7839
rfoot -1.64735 -6.04162
rtoes -7.43489
lfemur -41.7048 15.459 -21.6556
ltibia 21.0578
lfoot 20.0904 -4.83287
ltoes -0.798778
558
root 8.09871 17.4039 -4.95853 -44.873 80.181 -61.0668
lowerback 19.868 -1.16422 5.28652
upperback 6.51283 -0.114178 0.259312
thorax -4.0737 0.120752 -2.71349
lowerneck 5.18635 1.12668 2.54512
upperneck -18.0967 2.47198 1.70664
head -6.34015 1.04297 -0.0695909
rclavicle 2.38542e-014 1.90833e-014
rhumerus -29.2341 -0.920915 -90.2857
rradius 29.4313
rwrist 2.10846
rhand -22.1558 -8.91851
rfingers 7.12502
rthumb 4.25835 -38.8557
lclavicle 2.38542e-014 1.90833e-014
lhumerus -32.2235 6.34585 83.1691
lradius 29.127
lwrist 22.9717
lhand -20.2273 11.7295
lfingers 7.12502
lthumb 6.12036 41.6211
rfemur -14.5954 7.5601 30.1384
rtibia 37.6608
rfoot -2.43281 -5.9651
rtoes -8.27096
lfemur -41.8156 15.1784 -21.1565
ltibia 20.5908
lfoot 20.956 -3.9066
ltoes -0.515638
559
root 7.94301 17.3968 -4.94725 -44.2735 79.8989 -60.2973
lowerback 19.9655 -1.09345 5.35213
upperback 6.55663 -6.94986e-005 0.28298
thorax -4.06699 0.179143 -2.7519
lowerneck 5.28494 1.125 2.54747
upperneck -18.2175 2.48227 1.72137
head -6.39609 1.04479 -0.0676592
rclavicle -1.31198e-014 -2.46493e-014
rhumerus -29.156 -0.880738 -90.3749
rradius 29.4351
rwrist 2.10302
rhand -22.224 -8.94518
rfingers 7.12502
rthumb 4.1925 -38.8837
lclavicle -1.31198e-014 -2.46493e-014
lhumerus -32.2413 6.37188 83.2545
lradius 29.1811
lwrist 23.0624
lhand -20.3279 11.7766
lfingers 7.12502
lthumb 6.02329 41.671
rfemur -14.7578 7.21378 30.4815
rtibia 37.556
rfoot -3.08113 -5.90129
rtoes -8.6496
lfemur -41.8511 14.843 -20.617
ltibia 19.9936
lfoot 21.9509 -2.81237
ltoes -0.149144
560
root 7.7849 17.3941 -4.93578 -43.6675 79.6299 -59.515
lowerback 20.0891 -1.02426 5.39954
upperback 6.6092 0.110654 0.302151
thorax -4.06447 0.236284 -2.7843
lowerneck 5.39199 1.12152 2.5493
upperneck -18.3433 2.49146 1.74119
head -6.45526 1.04553 -0.0640431
rclavicle 7.15625e-015 1.51076e-014
rhumerus -29.066 -0.830506 -90.4675
rradius 29.4331
rwrist 2.10186
rhand -22.3198 -8.94181
rfingers 7.12502
rthumb 4.09992 -38.8821
lclavicle 7.15625e-015 1.51076e-014
lhumerus -32.2439 6.39887 83.3451
lradius 29.2219
lwrist 23.1528
lhand -20.4371 11.8311
lfingers 7.12502
lthumb 5.91781 41.7285
rfemur -14.9718 6.94058 30.7873
rtibia 37.4682
rfoot -3.59266 -5.85847
rtoes -8.73045
lfemur -41.7945 14.4342 -20.0173
ltibia 19.2492
lfoot 23.0512 -1.46903
ltoes 0.461363
561
root 7.62444 17.3953 -4.92378 -43.1603 79.3838 -58.844
lowerback 20.2187 -0.965063 5.4429
upperback 6.6652 0.208199 0.317855
thorax -4.06234 0.287215 -2.81532
lowerneck 5.50422 1.11721 2.55315
upperneck -18.4631 2.50078 1.76786
head -6.51362 1.04555 -0.0585897
rclavicle -1.70955e-014 -6.36111e-015
rhumerus -28.9688 -0.759861 -90.571
rradius 29.4397
rwrist 2.1005
rhand -22.4096 -8.95015
rfingers 7.12502
rthumb 4.01328 -38.8921
lclavicle -1.70955e-014 -6.36111e-015
lhumerus -32.2346 6.42416 83.4357
lradius 29.2568
lwrist 23.2387
lhand -20.5465 11.9031
lfingers 7.12502
lthumb 5.81221 41.8033
rfemur -15.2572 6.70754 31.0701
rtibia 37.4191
rfoot -3.96548 -5.84126
rtoes -8.63112
lfemur -41.6649 13.9369 -19.3564
ltibia 18.3502
lfoot 24.2334 0.133385
ltoes 1.3353
562
root 7.46254 17.3992 -4.91138 -42.7699 79.148 -58.3118
lowerback 20.3394 -0.914754 5.50059
upperback 6.72131 0.296362 0.331677
thorax -4.05584 0.333767 -2.85444
lowerneck 5.62092 1.11161 2.55725
upperneck -18.5706 2.50892 1.80121
head -6.56902 1.04434 -0.0509007
rclavicle 7.95139e-016 5.56597e-015
rhumerus -28.8705 -0.66184 -90.6863
rradius 29.4547
rwrist 2.10541
rhand -22.4931 -8.93773
rfingers 7.12502
rthumb 3.9326 -38.8812
lclavicle 7.95139e-016 5.56597e-015
lhumerus -32.2142 6.44793 83.5232
lradius 29.2859
lwrist 23.3118
lhand -20.6431 11.9389
lfingers 7.12502
lthumb 5.71891 41.8417
rfemur -15.6254 6.48571 31.3489
rtibia 37.4311
rfoot -4.19941 -5.82754
rtoes -8.56066
lfemur -41.4741 13.3473 -18.6153
ltibia 17.3128
lfoot 25.4359 1.98421
ltoes 2.44192
563
root 7.30009 17.4039 -4.89864 -42.5142 78.9128 -57.9446
lowerback 20.4343 -0.872653 5.58578
upperback 6.77756 0.377499 0.34701
thorax -4.03589 0.37732 -2.90583
lowerneck 5.73245 1.1055 2.5595
upperneck -18.6569 2.51551 1.83914
head -6.61688 1.04223 -0.0411295
rclavicle -3.29983e-014 -2.70347e-014
rhumerus -28.7739 -0.533978 -90.8098
rradius 29.4925
rwrist 2.11308
rhand -22.5486 -8.90602
rfingers 7.12502
rthumb 3.87902 -38.8505
lclavicle -3.29983e-014 -2.70347e-014
lhumerus -32.1801 6.4764 83.6054
lradius 29.3101
lwrist 23.3577
lhand -20.7092 11.9993
lfingers 7.12502
lthumb 5.6551 41.9038
rfemur -16.0817 6.26034 31.6414
rtibia 37.5161
rfoot -4.33211 -5.81797
rtoes -8.51714
lfemur -41.2532 12.678 -17.7911
ltibia 16.1815
lfoot 26.6084 3.97003
ltoes 3.6234
564
root 7.13791 17.4079 -4.88583 -42.3879 78.6699 -57.7459
lowerback 20.4875 -0.837901 5.71005
upperback 6.83186 0.453624 0.364406
thorax -3.9962 0.418952 -2.97566
lowerneck 5.84022 1.10056 2.55702
upperneck -18.7224 2.52293 1.88348
head -6.65759 1.04039 -0.0283923
rclavicle -1.19271e-014 -3.33958e-014
rhumerus -28.6847 -0.373656 -90.9413
rradius 29.5607
rwrist 2.12374
rhand -22.5584 -8.86311
rfingers 7.12502
rthumb 3.86957 -38.8077
lclavicle -1.19271e-014 -3.33958e-014
lhumerus -32.1425 6.50737 83.6814
lradius 29.3419
lwrist 23.379
lhand -20.7397 12.025
lfingers 7.12502
lthumb 5.62567 41.9303
rfemur -16.6241 6.03185 31.9572
rtibia 37.6673
rfoot -4.39478 -5.8027
rtoes -8.43489
lfemur -41.0384 11.9169 -16.8626
ltibia 15.0346
lfoot 27.7003 5.96962
ltoes 4.7857
